Coordinates
version=1
nRows=29
nColumns=22
inDegrees=yes

Units are S.I. units (second, meters, Newtons, ...)
If the header above contains a line with 'inDegrees', this indicates whether rotational values are in degrees (yes) or radians (no).

endheader
time	pelvis_tilt	pelvis_list	pelvis_rotation	pelvis_tx	pelvis_ty	pelvis_tz	hip_flexion_r	hip_adduction_r	hip_rotation_r	knee_angle_r	ankle_angle_r	subtalar_angle_r	hip_flexion_l	hip_adduction_l	hip_rotation_l	knee_angle_l	ankle_angle_l	subtalar_angle_l	lumbar_extension	lumbar_bending	lumbar_rotation
      0.01000000	     -3.04142177	     -8.20432165	      2.64340055	     -1.07377260	      0.97884227	     -0.27333044	      6.89128276	      7.66882728	     -1.80139863	    -15.00205066	      7.07327322	     -3.61950022	      3.75858677	     -8.04484451	      5.09676084	     -9.12849590	     11.30409411	     -1.74267229	      2.74487334	      8.06261751	     -5.53837634
      0.02000000	     -3.01815081	     -8.00141831	      2.65637981	     -1.07365451	      0.97862268	     -0.27354951	      6.90285746	      7.43558742	     -2.44012228	    -15.22332660	      7.74783149	     -2.45761297	      3.68592874	     -7.81265975	      5.11087035	     -9.08122810	     11.28624308	     -1.79312211	      2.72992479	      7.84042810	     -5.56459664
      0.03000000	     -3.02144436	     -7.81373248	      2.63418085	     -1.07357970	      0.97839186	     -0.27372855	      6.93203899	      7.22304094	     -2.94449911	    -15.41763755	      8.37938830	     -1.33670379	      3.64841755	     -7.59739705	      5.07353810	     -9.05067030	     11.28114838	     -1.83409960	      2.73682446	      7.63542792	     -5.55725942
      0.04000000	     -3.03480883	     -7.66307060	      2.60341936	     -1.07353613	      0.97819368	     -0.27388864	      6.96400902	      7.05195341	     -3.32554205	    -15.56946757	      8.87177041	     -0.49085931	      3.62660571	     -7.42239448	      5.03102773	     -9.02372812	     11.27784730	     -1.86752178	      2.75196971	      7.47026758	     -5.54551717
      0.05000000	     -3.06592971	     -7.54433423	      2.56170510	     -1.07352502	      0.97803353	     -0.27401813	      7.00940285	      6.91737211	     -3.57011376	    -15.67846999	      9.21114013	      0.05049884	      3.61824258	     -7.28390162	      4.97277747	     -8.97972406	     11.27023932	     -1.88952350	      2.78312137	      7.33919014	     -5.55070571
      0.06000000	     -3.09139220	     -7.46806265	      2.51342876	     -1.07358907	      0.97791651	     -0.27411820	      7.05117760	      6.83038207	     -3.70513864	    -15.75365226	      9.43328840	      0.32945599	      3.63728321	     -7.19090262	      4.91692700	     -8.98700055	     11.29442587	     -1.90829023	      2.79535951	      7.25283551	     -5.50177387
      0.07000000	     -3.15028921	     -7.44951321	      2.44755935	     -1.07366834	      0.97781009	     -0.27415703	      7.13908683	      6.80475300	     -3.74440258	    -15.82181651	      9.55765617	      0.60238934	      3.67760332	     -7.16520062	      4.83714812	     -8.96184398	     11.28781655	     -1.92441325	      2.84545909	      7.22896696	     -5.47684988
      0.08000000	     -3.17302201	     -7.45439902	      2.40759976	     -1.07374738	      0.97777072	     -0.27420733	      7.18062372	      6.80555082	     -3.76763292	    -15.85459331	      9.59872717	      0.61331283	      3.67615326	     -7.16693459	      4.78999020	     -8.92003703	     11.29162683	     -1.92688985	      2.85233155	      7.23091153	     -5.46873172
      0.09000000	     -3.24013825	     -7.43743773	      2.31767076	     -1.07390764	      0.97769055	     -0.27418864	      7.30629586	      6.78338815	     -3.71124258	    -15.94313782	      9.64425413	      0.63403513	      3.72829031	     -7.14514117	      4.69976059	     -8.89917374	     11.27524251	     -1.93378070	      2.89304386	      7.20702029	     -5.38988020
      0.10000000	     -3.30619291	     -7.43342430	      2.24837055	     -1.07408268	      0.97761694	     -0.27417615	      7.43666568	      6.77402924	     -3.65373209	    -16.03159917	      9.65159483	      0.62757561	      3.78409271	     -7.13759297	      4.62600939	     -8.87539604	     11.26852498	     -1.93925495	      2.93039276	      7.19586566	     -5.35897211
      0.11000000	     -3.36876093	     -7.42870570	      2.18574182	     -1.07427253	      0.97754360	     -0.27415481	      7.57878072	      6.76366550	     -3.60169626	    -16.14329488	      9.66337251	      0.59674560	      3.83753638	     -7.13029477	      4.55321445	     -8.84910013	     11.26107234	     -1.94320654	      2.96023851	      7.18189447	     -5.32378879
      0.12000000	     -3.43091471	     -7.41762721	      2.12371467	     -1.07446714	      0.97746731	     -0.27412407	      7.73221764	      6.74722305	     -3.55243204	    -16.27489336	      9.67621415	      0.55202694	      3.89020092	     -7.11697961	      4.48024199	     -8.82195163	     11.25060561	     -1.94625510	      2.98689296	      7.16020330	     -5.29371458
      0.13000000	     -3.50361417	     -7.39121832	      2.06788567	     -1.07468152	      0.97737365	     -0.27410595	      7.90459282	      6.71525260	     -3.48948717	    -16.41987049	      9.69564088	      0.48736414	      3.96506959	     -7.08451561	      4.40801774	     -8.81168011	     11.23893517	     -1.95025848	      3.02042706	      7.12275336	     -5.28158028
      0.14000000	     -3.55504271	     -7.37019916	      2.02065286	     -1.07485394	      0.97730161	     -0.27406618	      8.06110734	      6.68977624	     -3.46288856	    -16.57959751	      9.72001205	      0.43438560	      4.00268823	     -7.06234903	      4.34747001	     -8.77776435	     11.22284183	     -1.95194986	      3.03301388	      7.08596233	     -5.26989162
      0.15000000	     -3.57706529	     -7.36223158	      1.98686828	     -1.07497131	      0.97726395	     -0.27402239	      8.18088196	      6.67802881	     -3.46809236	    -16.73250925	      9.73930906	      0.40812593	      3.99695236	     -7.05760550	      4.29922250	     -8.72511047	     11.20873487	     -1.95158401	      3.01744554	      7.06153427	     -5.26285453
      0.16000000	     -3.61209977	     -7.32686916	      1.95068484	     -1.07509612	      0.97720747	     -0.27399252	      8.31802195	      6.63776042	     -3.45377112	    -16.89604669	      9.77531712	      0.37227903	      4.00870253	     -7.02051337	      4.23826790	     -8.68054405	     11.18459331	     -1.95241501	      3.01082334	      7.00862061	     -5.25453754
      0.17000000	     -3.64516669	     -7.29234724	      1.92753414	     -1.07520313	      0.97715544	     -0.27397117	      8.44066552	      6.59901303	     -3.44154627	    -17.03922896	      9.80303001	      0.33806657	      4.02396384	     -6.98406634	      4.18840664	     -8.64318694	     11.16247328	     -1.95348853	      3.00329505	      6.95519268	     -5.26010096
      0.18000000	     -3.66920945	     -7.26494490	      1.91447988	     -1.07527756	      0.97711662	     -0.27395151	      8.53940123	      6.56828696	     -3.44470588	    -17.15941862	      9.82331395	      0.31095055	      4.02993831	     -6.95520792	      4.14841328	     -8.60588146	     11.14292981	     -1.95340644	      2.98870453	      6.90768818	     -5.26997155
      0.19000000	     -3.69060035	     -7.23663204	      1.90853304	     -1.07532953	      0.97708415	     -0.27393201	      8.62061957	      6.53694980	     -3.45157142	    -17.25660345	      9.83981640	      0.28703236	      4.03620104	     -6.92537442	      4.11570497	     -8.57422938	     11.12316363	     -1.95224195	      2.97266554	      6.85750494	     -5.28321900
      0.20000000	     -3.69770441	     -7.23088266	      1.91352332	     -1.07535686	      0.97707561	     -0.27391309	      8.66057759	      6.53263795	     -3.44634971	    -17.30769377	      9.83520852	      0.28116573	      4.03410234	     -6.92057385	      4.09757675	     -8.55211870	     11.11803057	     -1.95145406	      2.94401224	      6.83288848	     -5.31477213
      0.21000000	     -3.70918370	     -7.21152575	      1.91957064	     -1.07536758	      0.97706443	     -0.27389928	      8.70354006	      6.50979510	     -3.46836984	    -17.36001468	      9.83723865	      0.27156332	      4.03788003	     -6.90035531	      4.07620056	     -8.53243875	     11.10175966	     -1.94826886	      2.92225224	      6.79200775	     -5.32953393
      0.22000000	     -3.71881208	     -7.21367397	      1.92771107	     -1.07535390	      0.97705942	     -0.27387078	      8.71202292	      6.51454223	     -3.47045474	    -17.35504182	      9.83797063	      0.27128814	      4.04551581	     -6.90368661	      4.07306799	     -8.52507676	     11.10157862	     -1.94820021	      2.90207127	      6.77345069	     -5.32857140
      0.23000000	     -3.72869581	     -7.18868682	      1.95330689	     -1.07534470	      0.97705756	     -0.27388318	      8.72258407	      6.48357041	     -3.50363288	    -17.35534135	      9.82856398	      0.26871911	      4.07385261	     -6.87356994	      4.07140936	     -8.54761570	     11.08281459	     -1.94219682	      2.88485482	      6.72421641	     -5.33892258
      0.24000000	     -3.73766729	     -7.19169111	      1.95695608	     -1.07531393	      0.97705531	     -0.27384873	      8.72628511	      6.48849803	     -3.50690486	    -17.34830230	      9.82910718	      0.26907050	      4.08229891	     -6.87805183	      4.07157180	     -8.54364708	     11.08338633	     -1.94197193	      2.86818635	      6.70808956	     -5.33778335
      0.25000000	     -3.74841596	     -7.19110136	      1.99963281	     -1.07529060	      0.97705540	     -0.27386628	      8.70966413	      6.48343386	     -3.54705329	    -17.29923754	      9.80689878	      0.28250669	      4.13648352	     -6.87251947	      4.10589117	     -8.60422096	     11.09073593	     -1.93178814	      2.85978092	      6.68294351	     -5.35516933
      0.26000000	     -3.75992659	     -7.20825420	      2.02734137	     -1.07525917	      0.97705320	     -0.27386434	      8.69305520	      6.49885263	     -3.58072129	    -17.24810864	      9.78689385	      0.30308686	      4.18340274	     -6.88751982	      4.13716523	     -8.65486687	     11.10356094	     -1.92141085	      2.85261180	      6.68106759	     -5.35151835
      0.27000000	     -3.76881422	     -7.21481259	      2.03970271	     -1.07520484	      0.97705891	     -0.27384426	      8.67162033	      6.50461126	     -3.60301860	    -17.19944703	      9.78250053	      0.31070838	      4.21337589	     -6.89332522	      4.15428846	     -8.68836129	     11.10322415	     -1.91912634	      2.84356670	      6.66757375	     -5.31176322
      0.28000000	     -3.77340548	     -7.24250268	      2.06887675	     -1.07517804	      0.97707069	     -0.27384149	      8.63444649	      6.53278488	     -3.62576380	    -17.12435457	      9.73816779	      0.34447563	      4.26882583	     -6.91968197	      4.18204077	     -8.76401091	     11.13180743	     -1.91257308	      2.82829392	      6.67958313	     -5.32087281
      0.29000000	     -3.78381026	     -7.25256243	      2.07331939	     -1.07511558	      0.97707680	     -0.27381769	      8.60780430	      6.54156238	     -3.65383477	    -17.06386979	      9.73508880	      0.35525184	      4.30019441	     -6.92881734	      4.20459795	     -8.80246704	     11.13209396	     -1.90970084	      2.82114953	      6.67177983	     -5.27309202
